# xmcd
#
# Track frame offsets:
#	300
#	25268
#	52335
#	76692
#	100133
#	122803
#	151259
#	174128
#	199879
#	233480
#	251841
#	285976
#
# Disc length: 4195 seconds
#
# Revision: 3
# Processed by: cddbd v1.5.2PL0 Copyright (c) Steve Scherf et al.
# Submitted via: audiograbber 1.83.01
#
DISCID=95105f0c
DTITLE=CD Pool - Dance January 2011 CD1
DYEAR=2011
DGENRE=Dance
TTITLE0=Cheryl Cole - The Flood (The Alias Club Mix)
TTITLE1=Skepta Vs N-Dubz - So Alive (Cahill Club Mix)
TTITLE2=Black Eyed Peas - The Time (The Dirty Bit)(Wideboys Club Mix)
TTITLE3=Usher - More (RedOne Jimmy Joker Extended Mix)
TTITLE4=Rihanna Ft Drake - What's My Name (Low Sunday Club Mix)
TTITLE5=Ace Of Base - All For You (7th Heaven Club Mix)
TTITLE6=Roger Sanchez Ft Far East Movement - 2gether (Extended Mix)
TTITLE7=Wynter Gordon - Dirty Talk (Original Extended Mix)
TTITLE8=Pixie Lott - Can't Make This Over (Bimbo Jones Club Mix)
TTITLE9=Talay Riley - Sergeant Smash (Kat Krazy Extended Mix)
TTITLE10=Edei - Loved (Moto Blanco Club Mix)
TTITLE11=Michael Canitrot - You and I (Original Extended Mix)
EXTD=
EXTT0=
EXTT1=
EXTT2=
EXTT3=
EXTT4=
EXTT5=
EXTT6=
EXTT7=
EXTT8=
EXTT9=
EXTT10=
EXTT11=
PLAYORDER=
